<svg width="24" height="21" viewBox="0 0 24 21" fill="none" xmlns="http://www.w3.org/2000/svg">
<path d="M19.9402 8.37664C19.3862 7.07557 18.5213 5.93038 17.4214 5.04161C16.3215 4.15283 15.0202 3.54765 13.6318 3.27917L14.886 1.2725L13.614 0.477501L11.9591 3.12538C10.2734 3.1332 8.62685 3.63472 7.223 4.56797C5.81915 5.50122 4.71948 6.82531 4.05985 8.37664C3.17628 8.39344 2.33457 8.75622 1.71565 9.38702C1.09673 10.0178 0.75 10.8663 0.75 11.75C0.75 12.6337 1.09673 13.4822 1.71565 14.113C2.33457 14.7438 3.17628 15.1066 4.05985 15.1234C4.72229 16.6811 5.82828 18.0095 7.24012 18.9433C8.65196 19.8771 10.3073 20.375 12 20.375C13.6927 20.375 15.348 19.8771 16.7599 18.9433C18.1717 18.0095 19.2777 16.6811 19.9402 15.1234C20.8237 15.1066 21.6654 14.7438 22.2844 14.113C22.9033 13.4822 23.25 12.6337 23.25 11.75C23.25 10.8663 22.9033 10.0178 22.2844 9.38702C21.6654 8.75622 20.8237 8.39344 19.9402 8.37664ZM21.2129 13.063C20.8699 13.4138 20.4023 13.6153 19.9117 13.6236L18.9402 13.6421L18.5599 14.5362C18.0127 15.8232 17.099 16.9209 15.9326 17.6924C14.7662 18.464 13.3985 18.8754 12 18.8754C10.6015 18.8754 9.23389 18.464 8.06747 17.6924C6.90104 16.9209 5.98735 15.8232 5.44017 14.5362L5.05983 13.6421L4.08835 13.6236C3.5975 13.6145 3.12986 13.413 2.78598 13.0626C2.4421 12.7123 2.24944 12.2409 2.24944 11.75C2.24944 11.2591 2.4421 10.7877 2.78598 10.4374C3.12986 10.087 3.5975 9.88555 4.08835 9.87636L5.05983 9.85789L5.44017 8.9638C5.98737 7.67679 6.90107 6.57917 8.06749 5.80763C9.23391 5.03608 10.6015 4.6247 12 4.6247C13.3985 4.6247 14.7661 5.03608 15.9326 5.80763C17.099 6.57917 18.0127 7.67679 18.5599 8.9638L18.9402 9.85789L19.9117 9.87636C20.2778 9.88328 20.6338 9.99731 20.9358 10.2044C21.2378 10.4114 21.4725 10.7024 21.611 11.0414C21.7494 11.3804 21.7855 11.7526 21.7147 12.1118C21.644 12.4711 21.4695 12.8018 21.2129 13.063Z" fill="#DEE2E6"/>
<path d="M7.875 9.875H9.75V11.75H7.875V9.875ZM14.25 9.875H16.125V11.75H14.25V9.875ZM12 17C12.4925 17 12.9801 16.903 13.4351 16.7145C13.89 16.5261 14.3034 16.2499 14.6517 15.9017C14.9999 15.5534 15.2761 15.14 15.4645 14.6851C15.653 14.2301 15.75 13.7425 15.75 13.25H8.25C8.25 13.7425 8.347 14.2301 8.53545 14.6851C8.72391 15.14 9.00013 15.5534 9.34835 15.9017C10.0516 16.6049 11.0054 17 12 17Z" fill="#DEE2E6"/>
</svg>
