<svg width="24" height="20" viewBox="0 0 24 20" fill="none" xmlns="http://www.w3.org/2000/svg">
<path d="M2.5714 14.2857C3.51818 14.2857 4.28569 13.1344 4.28569 11.7143C4.28569 10.2941 3.51818 9.14284 2.5714 9.14284C1.62463 9.14284 0.857117 10.2941 0.857117 11.7143C0.857117 13.1344 1.62463 14.2857 2.5714 14.2857Z" stroke="#DEE2E6" stroke-width="1.71429" stroke-linecap="round" stroke-linejoin="round"/>
<path d="M7.71429 6.57142C8.66106 6.57142 9.42857 5.42015 9.42857 3.99999C9.42857 2.57983 8.66106 1.42856 7.71429 1.42856C6.76751 1.42856 6 2.57983 6 3.99999C6 5.42015 6.76751 6.57142 7.71429 6.57142Z" stroke="#DEE2E6" stroke-width="1.71429" stroke-linecap="round" stroke-linejoin="round"/>
<path d="M16.2857 6.57142C17.2325 6.57142 18 5.42015 18 3.99999C18 2.57983 17.2325 1.42856 16.2857 1.42856C15.3389 1.42856 14.5714 2.57983 14.5714 3.99999C14.5714 5.42015 15.3389 6.57142 16.2857 6.57142Z" stroke="#DEE2E6" stroke-width="1.71429" stroke-linecap="round" stroke-linejoin="round"/>
<path d="M21.4285 14.2857C22.3753 14.2857 23.1428 13.1344 23.1428 11.7143C23.1428 10.2941 22.3753 9.14284 21.4285 9.14284C20.4817 9.14284 19.7142 10.2941 19.7142 11.7143C19.7142 13.1344 20.4817 14.2857 21.4285 14.2857Z" stroke="#DEE2E6" stroke-width="1.71429" stroke-linecap="round" stroke-linejoin="round"/>
<path d="M17.1428 15.1428C17.1428 17.5086 14.3657 18.5714 12 18.5714C9.63426 18.5714 6.85712 17.5086 6.85712 15.1428C6.85712 12.7771 8.5714 9.14284 12 9.14284C15.4285 9.14284 17.1428 12.7771 17.1428 15.1428Z" stroke="#DEE2E6" stroke-width="1.71429" stroke-linecap="round" stroke-linejoin="round"/>
</svg>
