<svg width="20" height="16" viewBox="0 0 20 16" fill="none" xmlns="http://www.w3.org/2000/svg">
<path d="M14.2492 10.2641C13.0822 9.22675 11.5752 8.65375 10.0138 8.65375C8.45246 8.65375 6.94539 9.22675 5.77843 10.2641C5.67982 10.3494 5.59915 10.4535 5.5411 10.5702C5.48305 10.687 5.44877 10.8141 5.44027 10.9443C5.43176 11.0744 5.44919 11.2049 5.49155 11.3282C5.53391 11.4515 5.60035 11.5652 5.68701 11.6627C5.77367 11.7601 5.87883 11.8393 5.99637 11.8958C6.11392 11.9523 6.24151 11.9848 6.37173 11.9915C6.50195 11.9983 6.63222 11.979 6.75496 11.935C6.8777 11.891 6.99046 11.823 7.08671 11.735C7.89325 11.0182 8.93478 10.6223 10.0138 10.6223C11.0929 10.6223 12.1344 11.0182 12.9409 11.735C13.1361 11.9085 13.3922 11.9973 13.6529 11.982C13.9136 11.9667 14.1575 11.8484 14.331 11.6532C14.5045 11.458 14.5933 11.2019 14.578 10.9412C14.5627 10.6805 14.4444 10.4366 14.2492 10.2631V10.2641Z" fill="#DEE2E6"/>
<path d="M10.0132 4.61094C7.37022 4.6073 4.8254 5.61181 2.89753 7.41969C2.79992 7.50713 2.72075 7.61317 2.66466 7.73161C2.60858 7.85004 2.5767 7.97848 2.57091 8.1094C2.56512 8.24031 2.58552 8.37107 2.63093 8.49399C2.67633 8.61692 2.74582 8.72954 2.83533 8.82526C2.92483 8.92097 3.03255 8.99785 3.15216 9.05139C3.27176 9.10493 3.40086 9.13405 3.53187 9.13703C3.66288 9.14002 3.79317 9.11682 3.91509 9.0688C4.03702 9.02077 4.14813 8.94888 4.2419 8.85735C5.80728 7.39385 7.8702 6.57971 10.0132 6.57971C12.1561 6.57971 14.219 7.39385 15.7844 8.85735C15.8782 8.94888 15.9893 9.02077 16.1112 9.0688C16.2331 9.11682 16.3634 9.14002 16.4944 9.13703C16.6254 9.13405 16.7545 9.10493 16.8742 9.05139C16.9938 8.99785 17.1015 8.92097 17.191 8.82526C17.2805 8.72954 17.35 8.61692 17.3954 8.49399C17.4408 8.37107 17.4612 8.24031 17.4554 8.1094C17.4496 7.97848 17.4177 7.85004 17.3616 7.73161C17.3056 7.61317 17.2264 7.50713 17.1288 7.41969C15.2009 5.61181 12.6561 4.6073 10.0132 4.61094Z" fill="#DEE2E6"/>
<path d="M19.6562 4.24344C17.0023 1.87548 13.5699 0.566803 10.0131 0.566803C6.45635 0.566803 3.02392 1.87548 0.369985 4.24344C0.270242 4.32864 0.188535 4.43291 0.129663 4.55014C0.0707921 4.66737 0.0359448 4.79518 0.0271688 4.92606C0.0183929 5.05695 0.0358654 5.18826 0.0785598 5.3123C0.121254 5.43634 0.188309 5.55059 0.275784 5.64834C0.36326 5.74609 0.469391 5.82538 0.587942 5.88153C0.706493 5.93769 0.835072 5.96958 0.966123 5.97534C1.09718 5.9811 1.22806 5.96061 1.35108 5.91507C1.4741 5.86953 1.58677 5.79986 1.68248 5.71016C3.97544 3.66518 6.94049 2.53506 10.0129 2.53506C13.0853 2.53506 16.0503 3.66518 18.3433 5.71016C18.5379 5.8842 18.7937 5.97381 19.0544 5.95926C19.3151 5.94471 19.5593 5.8272 19.7333 5.63258C19.9074 5.43795 19.997 5.18216 19.9824 4.92147C19.9679 4.66078 19.8504 4.41655 19.6558 4.2425L19.6562 4.24344Z" fill="#DEE2E6"/>
<path d="M10.0131 15.9411C10.8415 15.9411 11.5131 15.2695 11.5131 14.4411C11.5131 13.6127 10.8415 12.9411 10.0131 12.9411C9.1847 12.9411 8.51312 13.6127 8.51312 14.4411C8.51312 15.2695 9.1847 15.9411 10.0131 15.9411Z" fill="#DEE2E6"/>
</svg>
